name C:\Users\tom_v\MusculoskeletalSpecialization\ResultsSprinting\Case_3\motion.mot
datacolumns 32
datarows 16
range 0.00000000 0.08628469
endheader 
time	pelvis_tilt	pelvis_list	pelvis_rotation	pelvis_tx	pelvis_ty	pelvis_tz	hip_flexion_r	hip_adduction_r	hip_rotation_r	knee_angle_r	ankle_angle_r	subtalar_angle_r	mtp_angle_r	hip_flexion_l	hip_adduction_l	hip_rotation_l	knee_angle_l	ankle_angle_l	subtalar_angle_l	mtp_angle_l	lumbar_extension	lumbar_bending	lumbar_rotation	arm_flex_r	arm_add_r	arm_rot_r	elbow_flex_r	arm_flex_l	arm_add_l	arm_rot_l	elbow_flex_l	
          0.00000000	        -12.94039869	         -2.22100076	         -0.27904579	          0.00000000	          0.87986233	         -0.00040497	         46.76156347	          6.36352835	          1.11941946	        -38.73361490	         14.74760874	          2.52172832	          0.39758531	          2.90571540	         -1.91152880	          2.45486259	        -52.67965360	         -4.28689783	         17.40212988	         17.18854329	         -1.34218625	          4.91441943	         -4.07855312	         -5.97419957	         -6.82435826	          4.84160679	         68.85306608	         14.28950246	         -0.33271321	         19.05001987	          3.04401115	
          0.00575231	        -12.87727214	         -2.16419876	         -0.21408789	          0.02003547	          0.87707559	          0.00001237	         46.06064276	          6.61801821	          1.56542909	        -40.08849296	         15.30666363	          1.79673470	          0.28960222	          3.89867403	         -1.96284512	          2.28159980	        -54.65710160	         -3.04640159	         17.19691499	         15.94942684	         -1.21181569	          4.85156889	         -3.89100670	         -5.32251557	         -6.76237245	          5.38263401	         66.60825607	         13.80216358	         -0.54373421	         18.76771887	          4.24869864	
          0.01150463	        -12.81977008	         -2.11647749	         -0.15723311	          0.03987182	          0.87435355	          0.00044037	         45.38372572	          6.90526820	          2.00556477	        -41.50918147	         16.19868834	          1.00789548	          0.26196237	          5.02429258	         -2.00710996	          2.10963937	        -56.69813465	         -1.79475731	         16.91617480	         14.79776045	         -1.10062882	          4.79432060	         -3.68496375	         -4.57180224	         -6.68580336	          5.97575982	         64.17788312	         13.25541822	         -0.79813108	         18.36893950	          5.73135548	
          0.01725694	        -12.76923797	         -2.08114756	         -0.10705597	          0.05948363	          0.87179774	          0.00087959	         44.71943379	          7.23570161	          2.46568986	        -42.96653773	         17.39014126	          0.24882905	          0.41932699	          6.27347895	         -2.04410333	          1.95129393	        -58.76791767	         -0.54154999	         16.56486350	         13.72371466	         -1.01171077	          4.74486735	         -3.46434324	         -3.71038303	         -6.59007989	          6.62737849	         61.53909500	         12.64509278	         -1.09392588	         17.84886038	          7.50563091	
          0.02300925	        -12.72626701	         -2.05084150	         -0.06007716	          0.07888010	          0.86948913	          0.00132638	         44.02038805	          7.59134556	          2.94183829	        -44.36247064	         18.73621679	         -0.47504652	          0.85568288	          7.62919470	         -2.06757604	          1.80361151	        -60.81816720	          0.71565328	         16.14884816	         12.72074928	         -0.94413926	          4.69202376	         -3.23290168	         -2.73673962	         -6.46807860	          7.33998848	         58.67655368	         11.96586560	         -1.42757167	         17.21250477	          9.57487553	
          0.02876156	        -12.69135380	         -2.01516839	         -0.01457330	          0.09807892	          0.86747920	          0.00177443	         43.24594826	          7.94691434	          3.42464425	        -45.60537624	         20.05958206	         -1.17496658	          1.56316342	          9.07428160	         -2.06975346	          1.65687181	        -62.80401915	          1.98267459	         15.67534009	         11.78491123	         -0.89634621	          4.62248964	         -2.99209201	         -1.65557613	         -6.31315950	          8.11374883	         55.58823671	         11.21350206	         -1.79346282	         16.47010393	         11.93578025	
          0.03451388	        -12.66493405	         -1.96857507	          0.02878172	          0.11709363	          0.86579526	          0.00221499	         42.38200106	          8.28168934	          3.90062776	        -46.65719305	         21.26367794	         -1.84270153	          2.48134299	         10.59473632	         -2.04705748	          1.50241146	        -64.69280832	          3.26249620	         15.15215635	         10.91340403	         -0.86746837	          4.53059655	         -2.74160258	         -0.47440791	         -6.12139880	          8.94832424	         52.28441213	         10.38663252	         -2.18300583	         15.63564053	         14.57790397	
          0.04026619	        -12.64715802	         -1.90872001	          0.06812291	          0.13593728	          0.86444766	          0.00264039	         41.43022783	          8.58132807	          4.35863174	        -47.51392627	         22.31453938	         -2.46182609	          3.56711233	         12.17836574	         -1.99857677	          1.33404908	        -66.46135029	          4.55374765	         14.58682601	         10.10292875	         -0.85680266	          4.41516810	         -2.48075170	          0.79662546	         -5.89019976	          9.84271158	         48.78430862	          9.48718666	         -2.58622033	         14.72784097	         17.48192730	
          0.04601850	        -12.63777286	         -1.83268211	          0.10244668	          0.15462398	          0.86343550	          0.00304557	         40.39676961	          8.83463691	          4.79347129	        -48.18396029	         23.20806216	         -3.01690073	          4.79531978	         13.81409352	         -1.92274150	          1.14871650	        -68.09274516	          5.85272943	         13.98712663	          9.34953388	         -0.86377322	          4.27396741	         -2.21057321	          2.14458471	         -5.61657224	         10.79418811	         45.11452705	          8.52070140	         -2.99405921	         13.76967401	         20.61960254	
          0.05177081	        -12.63638188	         -1.73798603	          0.13130132	          0.17317029	          0.86275095	          0.00342787	         39.28753165	          9.03291775	          5.20166355	        -48.67674680	         23.94950396	         -3.49702483	          6.14889945	         15.49151285	         -1.81879777	          0.94503037	        -69.57474526	          7.15544632	         13.36055312	          8.64929297	         -0.88746562	          4.10478500	         -1.93253646	          3.55272752	         -5.29786428	         11.79611989	         41.30966210	          7.49658060	         -3.39843269	         12.78608243	         23.95394485	
          0.05752313	        -12.64247483	         -1.62283354	          0.15460353	          0.19159560	          0.86238251	          0.00378518	         38.10739498	          9.16866628	          5.57889178	        -49.00057194	         24.54794388	         -3.89245044	          7.61506757	         17.20068727	         -1.68672744	          0.72220552	        -70.89918451	          8.45718887	         12.71497064	          7.99848597	         -0.92647815	          3.90595625	         -1.64786714	          5.00029207	         -4.93280806	         12.83651330	         37.41259467	          6.42751765	         -3.79221512	         11.80075178	         27.44121417	
          0.06327544	        -12.65549245	         -1.48605115	          0.17248622	          0.20992036	          0.86231669	          0.00411581	         36.86117639	          9.23557369	          5.91996640	        -49.16344817	         25.01242659	         -4.19441585	          9.18347476	         18.93238429	         -1.52714308	          0.47930082	        -72.06180182	          9.75177039	         12.05786261	          7.39345719	         -0.97918107	          3.67633254	         -1.35747271	          6.46317989	         -4.52223316	         13.89695039	         33.47430627	          5.32834354	         -4.16955668	         10.83343587	         31.03427364	
          0.06902775	        -12.67488728	         -1.32779895	          0.18551207	          0.22816510	          0.86253925	          0.00441862	         35.55330951	          9.23049405	          6.22120537	        -49.17228868	         25.34892657	         -4.39924597	         10.84561911	         20.67835536	         -1.34150636	          0.21716059	        -73.06135464	         11.03198378	         11.39701489	          6.83061275	         -1.04390561	          3.41610380	         -1.06223235	          7.91483768	         -4.06985491	         14.95158180	         29.55326102	          4.21464447	         -4.52593879	          9.89893229	         34.68599671	
          0.07478006	        -12.70014062	         -1.14915780	          0.19462848	          0.24635060	          0.86303612	          0.00469238	         34.18744671	          9.15288370	          6.48024883	        -49.03257684	         25.56209274	         -4.50737319	         12.59237019	         22.43109381	         -1.13167876	         -0.06175954	        -73.89804345	         12.28319966	         10.73979481	          6.30713849	         -1.11893094	          3.12646037	         -0.76300616	          9.32763742	         -3.58291234	         15.96720866	         25.71321740	          3.10166656	         -4.85800379	          9.00733660	         38.35134464	
          0.08053238	        -12.73074234	         -0.95267531	          0.20084556	          0.26449935	          0.86379349	          0.00493672	         32.76580664	          9.00510133	          6.69541360	        -48.74741797	         25.65519437	         -4.52247809	         14.41379852	         24.18296162	         -0.90125618	         -0.35442070	        -74.57261675	         13.49022210	         10.09427815	          5.81855154	         -1.20222491	          2.81013138	         -0.46049323	         10.67461694	         -3.07252372	         16.90555553	         22.01969304	          2.00312479	         -5.16333697	          8.16470823	         41.98910096	
          0.08628469	        -12.76605584	         -0.74070315	          0.20533064	          0.28263421	          0.86479940	          0.00515290	         31.29350035	          8.79103821	          6.86355032	        -48.32537599	         25.62056827	         -4.45469837	         16.31108667	         25.92582655	         -0.65286300	         -0.65619678	        -75.08529259	         14.63955587	          9.46748192	          5.36136155	         -1.29163768	          2.46917270	         -0.15586233	         11.93218866	         -2.55260300	         17.72793550	         18.53447906	          0.93069846	         -5.44074535	          7.37351528	         45.56279907	
